<svg xmlns="http://www.w3.org/2000/svg" width="1600" height="900" viewBox="0 0 1600 900" fill="none">
  <defs>
    <linearGradient id="bg" x1="220" y1="120" x2="1390" y2="780" gradientUnits="userSpaceOnUse">
      <stop stop-color="#121826"/>
      <stop offset="0.55" stop-color="#09111C"/>
      <stop offset="1" stop-color="#050A12"/>
    </linearGradient>
    <radialGradient id="halo" cx="0" cy="0" r="1" gradientUnits="userSpaceOnUse" gradientTransform="translate(438 332) rotate(47.5) scale(350 316)">
      <stop stop-color="#7CE9FF" stop-opacity="0.24"/>
      <stop offset="0.45" stop-color="#36B7D8" stop-opacity="0.14"/>
      <stop offset="1" stop-color="#36B7D8" stop-opacity="0"/>
    </radialGradient>
    <linearGradient id="metalOuter" x1="222" y1="164" x2="628" y2="582" gradientUnits="userSpaceOnUse">
      <stop stop-color="#F2F6FA"/>
      <stop offset="0.18" stop-color="#A8BBCB"/>
      <stop offset="0.37" stop-color="#5E7182"/>
      <stop offset="0.56" stop-color="#D4DEE7"/>
      <stop offset="0.77" stop-color="#6C7D8B"/>
      <stop offset="1" stop-color="#EDF4FB"/>
    </linearGradient>
    <linearGradient id="metalInner" x1="284" y1="212" x2="576" y2="542" gradientUnits="userSpaceOnUse">
      <stop stop-color="#0D1622"/>
      <stop offset="0.5" stop-color="#132234"/>
      <stop offset="1" stop-color="#0A121E"/>
    </linearGradient>
    <linearGradient id="accent" x1="319" y1="244" x2="530" y2="493" gradientUnits="userSpaceOnUse">
      <stop stop-color="#F7FBFF"/>
      <stop offset="0.28" stop-color="#6BE8FF"/>
      <stop offset="0.6" stop-color="#2AA7C3"/>
      <stop offset="1" stop-color="#F7FBFF"/>
    </linearGradient>
    <linearGradient id="textMain" x1="702" y1="340" x2="1230" y2="590" gradientUnits="userSpaceOnUse">
      <stop stop-color="#F8FBFF"/>
      <stop offset="0.3" stop-color="#C8D4DF"/>
      <stop offset="0.68" stop-color="#8FA4B5"/>
      <stop offset="1" stop-color="#F4F8FC"/>
    </linearGradient>
    <linearGradient id="textSub" x1="706" y1="544" x2="1158" y2="620" gradientUnits="userSpaceOnUse">
      <stop stop-color="#7EDBF0"/>
      <stop offset="1" stop-color="#B5C1CD"/>
    </linearGradient>
    <filter id="softGlow" x="126" y="68" width="598" height="610" filterUnits="userSpaceOnUse" color-interpolation-filters="sRGB">
      <feFlood flood-opacity="0" result="BackgroundImageFix"/>
      <feBlend mode="normal" in="SourceGraphic" in2="BackgroundImageFix" result="shape"/>
      <feGaussianBlur stdDeviation="32" result="effect1_foregroundBlur_0_1"/>
    </filter>
    <filter id="shadow" x="185" y="115" width="478" height="520" filterUnits="userSpaceOnUse" color-interpolation-filters="sRGB">
      <feFlood flood-opacity="0" result="BackgroundImageFix"/>
      <feColorMatrix in="SourceAlpha" type="matrix" values="0 0 0 0 0 0 0 0 0 0 0 0 0 0 0 0 0 0 127 0" result="hardAlpha"/>
      <feOffset dy="18"/>
      <feGaussianBlur stdDeviation="20"/>
      <feComposite in2="hardAlpha" operator="out"/>
      <feColorMatrix type="matrix" values="0 0 0 0 0.0117647 0 0 0 0 0.054902 0 0 0 0 0.101961 0 0 0 0.7 0"/>
      <feBlend mode="normal" in2="BackgroundImageFix" result="effect1_dropShadow_0_1"/>
      <feBlend mode="normal" in="SourceGraphic" in2="effect1_dropShadow_0_1" result="shape"/>
    </filter>
  </defs>

  <rect width="1600" height="900" rx="40" fill="url(#bg)"/>
  <ellipse cx="438" cy="332" rx="290" ry="262" fill="url(#halo)"/>
  <path d="M0 714C188 627 366 584 543 583C687 582 845 625 1112 746L1600 900H0V714Z" fill="url(#halo)" opacity="0.16"/>

  <g filter="url(#softGlow)" opacity="0.55">
    <path d="M423 129L584 190V375C584 469 516 548 423 603C330 548 262 469 262 375V190L423 129Z" stroke="#6BE8FF" stroke-width="10"/>
  </g>

  <g filter="url(#shadow)">
    <path d="M423 140L596 205V382C596 482 522 565 423 623C324 565 250 482 250 382V205L423 140Z" fill="url(#metalOuter)"/>
    <path d="M423 170L568 225V377C568 459 506 529 423 580C340 529 278 459 278 377V225L423 170Z" fill="url(#metalInner)"/>
    <path d="M423 192L544 238V374C544 445 491 505 423 549C355 505 302 445 302 374V238L423 192Z" stroke="#203445" stroke-width="2" opacity="0.75"/>

    <path d="M337 248C365 220 399 206 438 206C487 206 528 225 562 262" stroke="#EFF7FF" stroke-opacity="0.32" stroke-width="8" stroke-linecap="round"/>
    <path d="M520 506C491 530 458 543 421 543C371 543 330 524 294 486" stroke="#6BE8FF" stroke-opacity="0.32" stroke-width="8" stroke-linecap="round"/>

    <path d="M504 279C477 250 447 236 414 236C338 236 291 300 291 377C291 454 338 518 414 518C447 518 477 504 504 475" stroke="url(#accent)" stroke-width="34" stroke-linecap="round"/>
    <path d="M383 304H500" stroke="#0C1A28" stroke-width="18" stroke-linecap="round"/>
    <path d="M356 377H470" stroke="#0C1A28" stroke-width="18" stroke-linecap="round"/>
    <path d="M383 450H500" stroke="#0C1A28" stroke-width="18" stroke-linecap="round"/>

    <circle cx="521" cy="262" r="8" fill="#EAF4FB" opacity="0.8"/>
    <circle cx="559" cy="301" r="4.5" fill="#7CE9FF" opacity="0.8"/>
    <circle cx="323" cy="489" r="6.5" fill="#C8D4DF" opacity="0.5"/>
  </g>

  <g opacity="0.94">
    <text x="700" y="458" fill="url(#textMain)" font-size="210" font-weight="700" letter-spacing="10" font-family="ui-sans-serif, system-ui, -apple-system, BlinkMacSystemFont, 'Segoe UI', sans-serif">CAREL</text>
    <text x="709" y="518" fill="#91A7B8" font-size="44" font-weight="500" letter-spacing="16" font-family="ui-sans-serif, system-ui, -apple-system, BlinkMacSystemFont, 'Segoe UI', sans-serif">PROTOCOL</text>
  </g>

  <g opacity="0.92">
    <path d="M706 534H1088" stroke="#233444" stroke-width="1.5"/>
    <text x="706" y="590" fill="url(#textSub)" font-size="34" font-family="ui-sans-serif, system-ui, -apple-system, BlinkMacSystemFont, 'Segoe UI', sans-serif" letter-spacing="10">PRIVATE AI-POWERED DEFI INFRASTRUCTURE</text>
    <text x="706" y="648" fill="#7C8C9A" font-size="20" font-family="ui-sans-serif, system-ui, -apple-system, BlinkMacSystemFont, 'Segoe UI', sans-serif" letter-spacing="5">LUXURY CONCEPT / SHIELDED EXECUTION / STARKNET-NATIVE</text>
  </g>
</svg>
