<svg xmlns="http://www.w3.org/2000/svg" viewBox="0 0 1024 1024" role="img" aria-labelledby="title desc">
  <title id="title">Onyx Blade NFT</title>
  <desc id="desc">Cyberpunk onyx blade artwork for onyx tier NFT.</desc>
  <defs>
    <linearGradient id="bg" x1="0%" y1="0%" x2="100%" y2="100%">
      <stop offset="0%" stop-color="#210a37"/>
      <stop offset="100%" stop-color="#07010f"/>
    </linearGradient>
    <linearGradient id="onyx" x1="0%" y1="0%" x2="0%" y2="100%">
      <stop offset="0%" stop-color="#ffe0ff"/>
      <stop offset="45%" stop-color="#bf57ff"/>
      <stop offset="100%" stop-color="#5e1f91"/>
    </linearGradient>
    <radialGradient id="aura" cx="50%" cy="40%" r="60%">
      <stop offset="0%" stop-color="#d067ff" stop-opacity="0.85"/>
      <stop offset="100%" stop-color="#d067ff" stop-opacity="0"/>
    </radialGradient>
  </defs>

  <rect width="1024" height="1024" rx="80" fill="url(#bg)"/>
  <rect x="26" y="26" width="972" height="972" rx="64" fill="none" stroke="#d48bff" stroke-opacity="0.85" stroke-width="8"/>
  <circle cx="512" cy="420" r="316" fill="url(#aura)"/>

  <g transform="translate(512 438)">
    <polygon points="0,-338 82,-158 28,102 0,280 -28,102 -82,-158" fill="url(#onyx)"/>
    <polygon points="-136,128 136,128 176,194 98,246 -98,246 -176,194" fill="#b34af9"/>
    <polygon points="-46,246 46,246 24,328 -24,328" fill="#6f2aa3"/>
    <path d="M0 -232L58 -96L194 -38L58 20L0 156L-58 20L-194 -38L-58 -96Z" fill="#ffdcff" opacity="0.98"/>
    <circle cx="0" cy="-282" r="20" fill="#ffdcff"/>
  </g>

  <text x="512" y="810" text-anchor="middle" fill="#f0c8ff" font-family="Verdana, sans-serif" font-size="84" font-weight="700">ONYX</text>
  <text x="512" y="874" text-anchor="middle" fill="#d48bff" font-family="Verdana, sans-serif" font-size="34">Cyberpunk Blade</text>
</svg>
