<svg xmlns="http://www.w3.org/2000/svg" viewBox="0 0 1024 1024" role="img" aria-labelledby="title desc">
  <title id="title">Platinum Blade NFT</title>
  <desc id="desc">Cyberpunk platinum blade artwork for platinum tier NFT.</desc>
  <defs>
    <linearGradient id="bg" x1="0%" y1="0%" x2="100%" y2="100%">
      <stop offset="0%" stop-color="#0e2a36"/>
      <stop offset="100%" stop-color="#070d12"/>
    </linearGradient>
    <linearGradient id="plasma" x1="0%" y1="0%" x2="0%" y2="100%">
      <stop offset="0%" stop-color="#e3ffff"/>
      <stop offset="45%" stop-color="#6de6ff"/>
      <stop offset="100%" stop-color="#2a7e97"/>
    </linearGradient>
    <radialGradient id="aura" cx="50%" cy="42%" r="60%">
      <stop offset="0%" stop-color="#57e6ff" stop-opacity="0.8"/>
      <stop offset="100%" stop-color="#57e6ff" stop-opacity="0"/>
    </radialGradient>
  </defs>

  <rect width="1024" height="1024" rx="80" fill="url(#bg)"/>
  <rect x="26" y="26" width="972" height="972" rx="64" fill="none" stroke="#8befff" stroke-opacity="0.8" stroke-width="8"/>
  <circle cx="512" cy="422" r="305" fill="url(#aura)"/>

  <g transform="translate(512 440)">
    <polygon points="0,-324 74,-154 28,92 0,262 -28,92 -74,-154" fill="url(#plasma)"/>
    <polygon points="-120,116 120,116 154,182 90,230 -90,230 -154,182" fill="#53dffb"/>
    <polygon points="-44,230 44,230 23,312 -23,312" fill="#2890aa"/>
    <path d="M0 -220L52 -96L176 -40L52 16L0 140L-52 16L-176 -40L-52 -96Z" fill="#d7fbff" opacity="0.96"/>
    <circle cx="0" cy="-268" r="18" fill="#d7fbff"/>
  </g>

  <text x="512" y="810" text-anchor="middle" fill="#c7f7ff" font-family="Verdana, sans-serif" font-size="78" font-weight="700">PLATINUM</text>
  <text x="512" y="874" text-anchor="middle" fill="#8defff" font-family="Verdana, sans-serif" font-size="34">Cyberpunk Blade</text>
</svg>
